<svg xmlns="http://www.w3.org/2000/svg" xmlns:xlink="http://www.w3.org/1999/xlink" viewBox="0 0 800 522">
  <g class="g-interactive" id="Shoe_inside" data-name="Shoe inside" style="isolation: isolate">
    <path d="M680,46c6.73,1.18,12.39,4.7,13,12,3.64,5.74-3.32,20.53-5,26-2.4,7.83-2.68,17.58-7,24-7.85,11.67-33.44,18.48-51,14-11.45-2.92-39.7-5-41-16,3.28-1.94,8.49-5.74,12-7,4.37-1.56,7.6,0,11-2,11.26-6.59,22.7-15.48,34-22,5.67-3.27,12.32-3.85,17-8C669.47,61.26,674.18,52.4,680,46Z" fill-rule="evenodd"/>
  </g>
  <g class="g-interactive" id="Shoe_middle_side" data-name="Shoe middle side" style="isolation: isolate">
    <path d="M362,388c-6.27.75-13.45,3.54-19,5H326c-10.21,2.53-26.53,3.45-38,6v-2c-5.95-8.48-6.27-29.14-10-40-7-20.42-18.47-41-24-62-3.41-13,8.7-39.35,16-41,4.44,6.66,15.91,9.4,20,15,5.19,7.11.91,15.11,15,16,4.36,3.08,12.33-.79,15-3a17.13,17.13,0,0,0,5-12c-.8-1.18-.77-1.68-1-4-9.46-6.14-13.29-17.55-22-24-5.25-3.89-11.25-5.67-15-11,5.56-3.58,9.15-10.11,17-11,7.23,4.49,21.91,4.38,30,8-.06,2.91-1,1.39,0,3,2.42,2.56,5.59,4.43,8,7,9.45.43,17.18.25,20-6,3.71-4.87,1-12.09-1-17-7.76-4.23-15.19-10.37-23-14-4.55-2.11-8.65.38-11-4-.8-1.18-.77-1.68-1-4,7.3-7.07,11.38-16.14,26-16,6.13,3.94,20,4.08,28,5v5c6.88,4.14,10,7.06,22,7,2.61-3,5.42-2.63,7-7,1.24-1.84,1.09-5.7,1-9-2.75-2.93-3.62-7.71-7-10-3.79-2.56-8.48-2.08-13-4-2.87-1.22-6.4-4.83-9-6-6.35-2.86-11.67.19-16-3h1c4.63-7,12.35-11,18-17,16.81-.26,27.92,3.15,42,5,2.6,10.14,13,9.84,24,9,1.56-2.39,2.92-2.92,4-6,2.88-3.57,1.51-7.92,1-13l-6-5h-9c-.67-.42-1.18-3.41-2-4a61.2,61.2,0,0,0-9-5c-6.32-2.6-17.73.51-21-5,14.56-9.84,12.74-21.21,39-21l21,4c1.69,3.19,3.37,7.56,7,9,3.31,2.74,7.69,3.11,14,3,3.41-3.08,7.24-3,9-8,1.91-2.38,2.06-5.49,2-10-2.29-2.09-6.92-8.55-9-10s-5.2.29-8-1c-3.22-1.48-7.63-6.31-11-8-3.61-1.8-8.79-.87-12-3h1c11.88-13.6,58.76,2,70,8,5,2.69,11.39.94,14,6,.8,1.18.77,1.68,1,4-6.69,6-14.17,10.92-21,17-5.19,4.62-8.87,11.31-14,16-2.88,2.63-7.07,3.39-10,6-8.47,7.55-14.05,17.92-22,26-4.95,5-11,9-16,14-3,3-4.92,7.18-8,10-2.88,2.63-7.07,3.39-10,6-3.09,2.76-5.06,7.06-8,10-9,9-19,17-28,26-4.33,4.33-7.64,9.71-12,14-3.44,3.39-8.36,4.75-12,8-15.07,13.42-41.9,39.07-47,61-1,4.32,5.67,26.26,7,30q1,6,2,12c2.44,6.62,7,14.56,9,22,1.47,5.42.16,9.11,2,14C359.16,382.1,361.26,383.58,362,388Z" fill-rule="evenodd"/>
  </g>
  <g class="g-interactive" id="Shoe_left_side" data-name="Shoe left side" style="isolation: isolate">
    <path d="M274,337c-1.91,9-.29,8.39,3,16q1,6,2,12c3.35,9.32,7.38,22.37,8,34-26.13.3-46.27,1.78-72,2-8,.07-16.09,4.87-25,2-1.64-.53-4.36-3.48-6-4H170c-8.83-2.19-21.37-3.86-30-6H130c-36.83-9.32-68.06-20.26-93-41,6.35-4.76,10.42-12.41,16-18a172.22,172.22,0,0,1,29-23c11.25-7,24.3-10.43,37-16,9.23-4.05,18.79-10.26,27-15,11.33-6.53,23.57-9.81,35-16,12.93-7,34.74-29.32,51-30,8.95,10,30.27,6.62,35,21-18.88,21.28-12.51,42.53-2,66C267.77,327.19,266.28,335.78,274,337Z" fill-rule="evenodd"/>
    <path d="M286,196v-3a48.58,48.58,0,0,1-6-6c9.66-1.11,17.14-5.8,27-8,2.53,4.15,9.45,12.72,7,18-1.55,1.05-4.09,1-7,1C302.66,195.09,293,195.87,286,196Z"  fill-rule="evenodd"/>
    <path d="M351,142h4c2.95,4.86,3.45,7.47,6,13h-9c-4.53,2.93-18.37,1.13-25,1v-1h-1c-.4-3.16-1-3.8-2-6h2C331.33,146.47,344.66,146.66,351,142Z"  fill-rule="evenodd"/>
    <path d="M400,99c4,1,5.76,2.26,7,6,3,4,.52,9.72-3,11-2.86,1.86-25.24,0-30-1v-4C378.09,110,396.76,101.45,400,99Z" fill-rule="evenodd"/>
    <path d="M481,28c25.65.37,57.59,33.14,63,53h-8c-4.9-4.63-11.33-3.69-18-7-1.82-.9-4.33-5.19-6-6h-8c-20.32-7.69-25.89-2.09-46,3-11.54,2.92-26.79-2.41-37,1V69c16.28-7.66,27.62-23.51,42-33C468.3,32.5,476,32,481,28Z" fill-rule="evenodd"/>
  </g>
  <g class="g-interactive" id="Shoe_-_top_back_thingy" data-name="Shoe - top back thingy" style="isolation: isolate">
    <path d="M684,105c-.13-14.1,5.63-24.73,9-36q1-7,2-14c2.06-4.72,4.6-6.28,5-14-1.42-1.31-1.64-3.69-3-5-3.78-3.64-7.87-1.18-10-7h7c3.53,2.78,8.23,3.4,12,6,14.19,9.78,20.72,27.93,27,46,1.48,4.25,6.53,9.86,5,16-1.17,4.72-5.14,7-8,10C712.68,107.08,699.91,105.08,684,105Z" fill-rule="evenodd"/>
  </g>
  <g class="g-interactive" id="Shoe_right_side" data-name="Shoe right side" style="isolation: isolate">
    <path d="M758,237l-1,6c-37.4,23-93.15,32.21-137,49-51.31,19.65-99.31,42.05-150,62-7.19,2.83-16.38,7.27-24,10l-12,1c-2.74,1-5.29,4.91-8,6l-8,1c-14.7,5.31-37.32,15.35-56,12-4.78-7.72-3.59-13.3-7-23-5.87-16.7-23.27-49.32-14-70,8.09-18.05,29.85-38.05,44-51,2.88-2.63,7.06-3.39,10-6,2.39-2.13,3.72-5.72,6-8,9.67-9.67,20.33-18.33,30-28,4.95-4.95,8.84-11.28,14-16,2.88-2.63,7.06-3.39,10-6,4.5-4,7.73-9.73,12-14s10-7.5,14-12c5.18-5.81,8.54-12.55,14-18,14.58-14.57,40.12-30.1,51-47,3.33,2.23,3.19,3.69,9,4,11.94-10.29,29.53-13.2,45-20,17.57-7.73,35.75-17.91,52-28,9.87-6.13,17-13.81,33-14,3.75,4.63,11.64,6.15,14,12,2.59,3.69-3.6,20.6-6,22V59c-1.09-1.63-1.59-5.86-2-8-3.75-1.87-5.44-3.55-11-4-4.66,4.81-8.69,13.06-14,17-16.15,12-34.2,21.69-52,32-6.77,3.92-24.65,5.79-26,14,19,6.5,44.41,19.49,72,11,10-3.07,17.69-12.38,28-15l40,1,8-6v2c4.34,5.84,4.27,14.49,7,22,7.4,20.34,10.66,43.23,16,67,3.15,14-2.09,34.33,4,45Z" fill-rule="evenodd"/>
  </g>
  <g class="g-interactive" id="Shoe_sole" data-name="Shoe sole" style="isolation: isolate">
    <path d="M761,234c12.19,8.27,15.06,43.14,11,60-3.89,16.14-2.84,30.88-11,42-7,9.58-23.8,11.49-36,16-27.94,10.34-56.38,19.14-86,29-71,23.64-130.55,56.1-197,84-24.47,10.28-52.53,16.25-79,23l-36,4c-25.21,5.6-84.42,9-112,3-9-2-18.34-.31-26-2-17.26-3.82-33.43-1-50-5-14.73-3.57-31-4.82-45-10-10.67-3.95-21.38-10-31-15-11.49-6-28-12.79-34-24-6.09-11.44-4-32.74-4-49,0-13.12,6.78-29.9,13-37,1.75.63,1,.19,2,1,5.09,1.65,5.61,5,9,8,4.58,4,11.68,4.71,17,8,1.21.75,2.78,3.26,4,4,15,9.14,41.37,14.28,60,19h10c8.63,2.13,21.18,3.81,30,6h36c11.45,2.75,32.55,2.82,44,0,14.46-3.56,30.83,1.56,44-3l18,1c3.66-.91,10.34-3.08,14-4l21-1c3.77-1.09,7.61-4.73,11-6,8.45-3.16,16.61-.59,26-3,11.12-2.86,23.75-7.3,34-11,5.91-2.13,14.14-.52,20-3,1.65-.7,3.5-4.17,5-5,4.76-2.64,9.71-1.93,15-4,6.05-2.37,14.16-7.35,20-10l9-2c33.61-16.74,70.27-30.51,105-46,5.58-2.49,10.27-1.81,16-4,32.66-12.47,68.64-23.64,102-36C730.17,254.53,750.74,251,761,234Z" fill-rule="evenodd"/>
  </g>
  <g class="g-interactive" id="Shoe_laces" data-name="Shoe laces" style="isolation: isolate">
    <path d="M303,179l-23,7v1l5,7c6,3.84,20.83,2.15,30,2v-1C311.32,191.41,312.69,179.72,303,179Z" fill-rule="evenodd"/>
    <path d="M439,143c-20,1-33.83-4.77-56-5-2.76,5.25-10.1,11.81-15,15v1h1c10,7.73,31.65,2.45,32,20-6.55,6.44-8.77,8.33-23,8-4.5-2.85-29.93-4.73-36-4-4.44,6.86-12.18,13.55-19,18v1h1c8.22,4.54,28.82,4.58,30,19,.8,1.18.77,1.68,1,4-3.08.89-3,1.58-7,2-.84-2.39-.4-1.64-2-3v2c1.32,1.74,1.73,1.61,1,3-1.12,3.36-1.13,3.31-5,4-3.76-2.31-10.84.29-16-1-4.64-1.16-9.85-4.8-14-6-14.18-4.1-30.09-1-46-1v1h2c3.14,2.32,7.3,1.93,11,4,10.28,5.76,21.37,15.22,29,24,3,3.42,9.19,13.14,7,18-3.59,3.25-5.52.92-10,0-.83,3-1.49,3.07-3,5-16.09-2.94-26.75-11.07-37-20-3.29-2.87-6.63-7.31-11-9-6.81-2.64-11.56-2.1-18-5-7.09-3.2-16.37-9.82-24-12-6.81-1.94-8.53,4.16-12,3-2.75-1-2.2-1.44-4-3,.63-1.75.19-1,1-2,3.32-7.12,17.85-17,26-19,7.6-1.9,14.62,4.73,19,3a25.74,25.74,0,0,0,12-9c-4.56-3.37-12.34-11.06-13-18,6.87-4.53,14.27-14.17,23-16,2.63,2.93,10.27,12.21,14,13,5-6.67,17.15-12,19-21-3.66-2.33-4.12-7-7-10,5-7.48,13.93-11.56,20-18,1.75.63,1,.19,2,1,7,2.54,5.36,10,11,13v-1c4-1.27,21.19-19,22-23-3.41-3.35-7.11-8.3-8-14,7.32-4.83,12.73-13.29,23-15,2.69,4.77,5.5,9.78,8,15,1.75-.63,1-.19,2-1,6.48-3.49,20.88-18.71,25-25-2.81-2.16-4.4-5.63-5-10l8-9c2.16-1.48,4.23-1.31,6-3,8.79,1.92,12,7.19,15,15,20.64-4.6,64-4.29,70,12,1.46,2.09,1.82,5.68,2,9-1.72,1.73-1.5,2.78-4,4-4.3,3.24-11.35.53-18,0-12.35-1-25.59-2.73-41-3-3.54,5.52-12.54,15.74-19,18v-1c-2.84-4.54-2.12-11.41-8-13-8.19,6.26-20.54,7.09-28,14h1c2.1,3.56,5.21,3.29,11,3,5.65,3.07,16.85-2.52,27,0,10.44,2.6,20.39,7.44,30,10,1.13,4.42,3.18,6.08,4,11C441.14,136.83,439.21,137.09,439,143Z" fill-rule="evenodd"/>
    <path d="M351,142c-6.16,4.84-18,5.25-27,7v1c3,3.74,2.1,5.72,9,6,5.55-3.46,22.52-.81,29-2v-1C358.15,148.63,358.72,142.81,351,142Z" fill-rule="evenodd"/>
  </g>
  <g id="Shadow_Image" data-name="Shadow Image">
    <image id="Shadow_Image-2" data-name="Shadow Image" width="752" height="472" transform="translate(24 25)" xlink:href="white-shoe-please-work1.png"/>
  </g>
</svg>
